<?xml version="1.0" encoding="UTF-8"?>
<svg xmlns="http://www.w3.org/2000/svg" xmlns:xlink="http://www.w3.org/1999/xlink" width="800" height="500" viewBox="0 0 800 500">
<defs>
<g>
<g id="glyph-0-0-27ec5fd5">
<path d="M 7.328125 -3.59375 C 7.328125 -1.265625 6.078125 0.203125 4.1875 0.203125 C 3.234375 0.203125 2.546875 -0.125 1.9375 -0.875 C 1.9375 -0.875 1.9375 3.046875 1.9375 3.046875 C 1.9375 3.046875 0.765625 3.046875 0.765625 3.046875 C 0.765625 3.046875 0.765625 -7.34375 0.765625 -7.34375 C 0.765625 -7.34375 1.828125 -7.34375 1.828125 -7.34375 C 1.828125 -7.34375 1.828125 -6.234375 1.828125 -6.234375 C 2.375 -7.09375 3.171875 -7.546875 4.171875 -7.546875 C 6.125 -7.546875 7.328125 -6.0625 7.328125 -3.59375 Z M 6.109375 -3.625 C 6.109375 -5.375 5.265625 -6.453125 3.96875 -6.453125 C 2.75 -6.453125 1.9375 -5.328125 1.9375 -3.609375 C 1.9375 -1.890625 2.75 -0.875 3.96875 -0.875 C 5.25 -0.875 6.109375 -1.953125 6.109375 -3.625 Z M 6.109375 -3.625 "/>
</g>
<g id="glyph-0-1-27ec5fd5">
<path d="M 4.5 -6.3125 C 2.6875 -6.28125 2.140625 -5.453125 2.140625 -3.8125 C 2.140625 -3.8125 2.140625 0 2.140625 0 C 2.140625 0 0.984375 0 0.984375 0 C 0.984375 0 0.984375 -7.34375 0.984375 -7.34375 C 0.984375 -7.34375 2.046875 -7.34375 2.046875 -7.34375 C 2.046875 -7.34375 2.046875 -6 2.046875 -6 C 2.71875 -7.09375 3.296875 -7.546875 4.046875 -7.546875 C 4.203125 -7.546875 4.296875 -7.53125 4.5 -7.5 C 4.5 -7.5 4.5 -6.3125 4.5 -6.3125 Z M 4.5 -6.3125 "/>
</g>
<g id="glyph-0-2-27ec5fd5">
<path d="M 7.140625 -3.609375 C 7.140625 -1.203125 5.875 0.203125 3.828125 0.203125 C 1.734375 0.203125 0.5 -1.203125 0.5 -3.671875 C 0.5 -6.125 1.75 -7.546875 3.8125 -7.546875 C 5.921875 -7.546875 7.140625 -6.140625 7.140625 -3.609375 Z M 5.921875 -3.625 C 5.921875 -5.453125 5.140625 -6.46875 3.828125 -6.46875 C 2.515625 -6.46875 1.71875 -5.4375 1.71875 -3.671875 C 1.71875 -1.890625 2.515625 -0.875 3.828125 -0.875 C 5.109375 -0.875 5.921875 -1.90625 5.921875 -3.625 Z M 5.921875 -3.625 "/>
</g>
<g id="glyph-0-3-27ec5fd5">
<path d="M 7.328125 -3.75 C 7.328125 -1.375 6.0625 0.203125 4.125 0.203125 C 3.109375 0.203125 2.359375 -0.203125 1.8125 -1.046875 C 1.8125 -1.046875 1.8125 0 1.8125 0 C 1.8125 0 0.75 0 0.75 0 C 0.75 0 0.75 -10.203125 0.75 -10.203125 C 0.75 -10.203125 1.921875 -10.203125 1.921875 -10.203125 C 1.921875 -10.203125 1.921875 -6.34375 1.921875 -6.34375 C 2.46875 -7.171875 3.171875 -7.546875 4.1875 -7.546875 C 6.125 -7.546875 7.328125 -6.125 7.328125 -3.75 Z M 6.109375 -3.6875 C 6.109375 -5.3125 5.265625 -6.453125 3.96875 -6.453125 C 2.734375 -6.515625 1.921875 -5.390625 1.921875 -3.671875 C 1.921875 -2 2.734375 -0.875 3.96875 -0.875 C 5.234375 -0.875 6.109375 -2.015625 6.109375 -3.6875 Z M 6.109375 -3.6875 "/>
</g>
<g id="glyph-0-4-27ec5fd5">
<path d="M 2.109375 0 C 2.109375 0 0.953125 0 0.953125 0 C 0.953125 0 0.953125 -10.203125 0.953125 -10.203125 C 0.953125 -10.203125 2.109375 -10.203125 2.109375 -10.203125 C 2.109375 -10.203125 2.109375 0 2.109375 0 Z M 2.109375 0 "/>
</g>
<g id="glyph-0-5-27ec5fd5">
<path d="M 7.1875 -3.328125 C 7.1875 -3.328125 1.78125 -3.328125 1.78125 -3.328125 C 1.8125 -1.65625 2.71875 -0.875 3.9375 -0.875 C 4.875 -0.875 5.53125 -1.265625 5.859375 -2.21875 C 5.859375 -2.21875 7.03125 -2.21875 7.03125 -2.21875 C 6.734375 -0.734375 5.578125 0.203125 3.890625 0.203125 C 1.828125 0.203125 0.5625 -1.21875 0.5625 -3.625 C 0.5625 -6.03125 1.875 -7.546875 3.921875 -7.546875 C 5.296875 -7.546875 6.40625 -6.8125 6.890625 -5.609375 C 7.09375 -5.0625 7.1875 -4.390625 7.1875 -3.328125 Z M 5.9375 -4.375 C 5.9375 -5.515625 5.046875 -6.46875 3.90625 -6.46875 C 2.734375 -6.46875 1.90625 -5.59375 1.8125 -4.28125 C 1.8125 -4.28125 5.921875 -4.28125 5.921875 -4.28125 C 5.9375 -4.3125 5.9375 -4.375 5.9375 -4.375 Z M 5.9375 -4.375 "/>
</g>
<g id="glyph-0-6-27ec5fd5">
<path d="M 10.640625 0 C 10.640625 0 9.484375 0 9.484375 0 C 9.484375 0 9.484375 -5.046875 9.484375 -5.046875 C 9.484375 -5.984375 8.984375 -6.53125 8.140625 -6.53125 C 7.1875 -6.53125 6.390625 -5.671875 6.390625 -4.609375 C 6.390625 -4.609375 6.390625 0 6.390625 0 C 6.390625 0 5.234375 0 5.234375 0 C 5.234375 0 5.234375 -5.046875 5.234375 -5.046875 C 5.234375 -5.984375 4.75 -6.53125 3.875 -6.53125 C 2.921875 -6.53125 2.15625 -5.671875 2.15625 -4.609375 C 2.15625 -4.609375 2.15625 0 2.15625 0 C 2.15625 0 1 0 1 0 C 1 0 1 -7.34375 1 -7.34375 C 1 -7.34375 2.0625 -7.34375 2.0625 -7.34375 C 2.0625 -7.34375 2.0625 -6.296875 2.0625 -6.296875 C 2.6875 -7.1875 3.328125 -7.546875 4.3125 -7.546875 C 5.265625 -7.546875 5.859375 -7.203125 6.28125 -6.421875 C 6.96875 -7.25 7.5625 -7.546875 8.546875 -7.546875 C 9.90625 -7.546875 10.640625 -6.8125 10.640625 -5.5 C 10.640625 -5.5 10.640625 0 10.640625 0 Z M 10.640625 0 "/>
</g>
<g id="glyph-0-7-27ec5fd5">
</g>
<g id="glyph-0-8-27ec5fd5">
<path d="M 6.421875 -2.0625 C 6.421875 -0.640625 5.25 0.203125 3.40625 0.203125 C 1.484375 0.203125 0.53125 -0.546875 0.46875 -2.234375 C 0.46875 -2.234375 1.703125 -2.234375 1.703125 -2.234375 C 1.859375 -1.125 2.453125 -0.875 3.5 -0.875 C 4.515625 -0.875 5.203125 -1.28125 5.203125 -1.953125 C 5.203125 -2.484375 4.890625 -2.734375 4.078125 -2.921875 C 4.078125 -2.921875 2.984375 -3.1875 2.984375 -3.1875 C 1.25 -3.609375 0.65625 -4.15625 0.65625 -5.3125 C 0.65625 -6.65625 1.765625 -7.546875 3.46875 -7.546875 C 5.171875 -7.546875 6.125 -6.734375 6.125 -5.296875 C 6.125 -5.296875 4.90625 -5.296875 4.90625 -5.296875 C 4.875 -6.0625 4.375 -6.46875 3.4375 -6.46875 C 2.484375 -6.46875 1.875 -6.03125 1.875 -5.359375 C 1.875 -4.84375 2.28125 -4.53125 3.234375 -4.3125 C 3.234375 -4.3125 4.359375 -4.046875 4.359375 -4.046875 C 5.8125 -3.703125 6.421875 -3.15625 6.421875 -2.0625 Z M 6.421875 -2.0625 "/>
</g>
<g id="glyph-0-9-27ec5fd5">
<path d="M 2.140625 0 C 2.140625 0 0.984375 0 0.984375 0 C 0.984375 0 0.984375 -7.34375 0.984375 -7.34375 C 0.984375 -7.34375 2.140625 -7.34375 2.140625 -7.34375 C 2.140625 -7.34375 2.140625 0 2.140625 0 Z M 2.296875 -8.4375 C 2.296875 -8.4375 0.84375 -8.4375 0.84375 -8.4375 C 0.84375 -8.4375 0.84375 -9.890625 0.84375 -9.890625 C 0.84375 -9.890625 2.296875 -9.890625 2.296875 -9.890625 C 2.296875 -9.890625 2.296875 -8.4375 2.296875 -8.4375 Z M 2.296875 -8.4375 "/>
</g>
<g id="glyph-0-10-27ec5fd5">
<path d="M 6.390625 0 C 6.390625 0 0.4375 0 0.4375 0 C 0.4375 0 0.4375 -1.046875 0.4375 -1.046875 C 0.4375 -1.046875 4.8125 -6.3125 4.8125 -6.3125 C 4.8125 -6.3125 0.734375 -6.3125 0.734375 -6.3125 C 0.734375 -6.3125 0.734375 -7.34375 0.734375 -7.34375 C 0.734375 -7.34375 6.203125 -7.34375 6.203125 -7.34375 C 6.203125 -7.34375 6.203125 -6.296875 6.203125 -6.296875 C 6.203125 -6.296875 1.84375 -1.015625 1.84375 -1.015625 C 1.84375 -1.015625 6.390625 -1.015625 6.390625 -1.015625 C 6.390625 -1.015625 6.390625 0 6.390625 0 Z M 6.390625 0 "/>
</g>
<g id="glyph-0-11-27ec5fd5">
<path d="M 4.078125 2.96875 C 4.078125 2.96875 3.296875 2.96875 3.296875 2.96875 C 1.90625 1.140625 1.015625 -1.40625 1.015625 -3.625 C 1.015625 -5.828125 1.90625 -8.375 3.296875 -10.203125 C 3.296875 -10.203125 4.078125 -10.203125 4.078125 -10.203125 C 2.84375 -8.21875 2.15625 -5.859375 2.15625 -3.625 C 2.15625 -1.390625 2.84375 0.96875 4.078125 2.96875 Z M 4.078125 2.96875 "/>
</g>
<g id="glyph-0-12-27ec5fd5">
<path d="M 8.296875 -9.0625 C 8.296875 -9.0625 4.953125 -9.0625 4.953125 -9.0625 C 4.953125 -9.0625 4.953125 0 4.953125 0 C 4.953125 0 3.65625 0 3.65625 0 C 3.65625 0 3.65625 -9.0625 3.65625 -9.0625 C 3.65625 -9.0625 0.296875 -9.0625 0.296875 -9.0625 C 0.296875 -9.0625 0.296875 -10.203125 0.296875 -10.203125 C 0.296875 -10.203125 8.296875 -10.203125 8.296875 -10.203125 C 8.296875 -10.203125 8.296875 -9.0625 8.296875 -9.0625 Z M 8.296875 -9.0625 "/>
</g>
<g id="glyph-0-13-27ec5fd5">
<path d="M 3.578125 -3.609375 C 3.578125 -1.40625 2.703125 1.140625 1.296875 2.96875 C 1.296875 2.96875 0.53125 2.96875 0.53125 2.96875 C 1.765625 0.984375 2.453125 -1.390625 2.453125 -3.609375 C 2.453125 -5.859375 1.765625 -8.203125 0.53125 -10.203125 C 0.53125 -10.203125 1.296875 -10.203125 1.296875 -10.203125 C 2.703125 -8.375 3.578125 -5.828125 3.578125 -3.609375 Z M 3.578125 -3.609375 "/>
</g>
<g id="glyph-0-14-27ec5fd5">
<path d="M 7.1875 -3.296875 C 7.1875 -1.1875 5.78125 0.203125 3.78125 0.203125 C 2.015625 0.203125 0.890625 -0.578125 0.484375 -2.546875 C 0.484375 -2.546875 1.71875 -2.546875 1.71875 -2.546875 C 2.015625 -1.421875 2.671875 -0.875 3.75 -0.875 C 5.09375 -0.875 5.921875 -1.6875 5.921875 -3.125 C 5.921875 -4.59375 5.078125 -5.453125 3.75 -5.453125 C 2.984375 -5.453125 2.5 -5.203125 1.9375 -4.515625 C 1.9375 -4.515625 0.796875 -4.515625 0.796875 -4.515625 C 0.796875 -4.515625 1.546875 -9.71875 1.546875 -9.71875 C 1.546875 -9.71875 6.65625 -9.71875 6.65625 -9.71875 C 6.65625 -9.71875 6.65625 -8.5 6.65625 -8.5 C 6.65625 -8.5 2.53125 -8.5 2.53125 -8.5 C 2.53125 -8.5 2.140625 -5.9375 2.140625 -5.9375 C 2.71875 -6.359375 3.28125 -6.53125 3.96875 -6.53125 C 5.875 -6.53125 7.1875 -5.25 7.1875 -3.296875 Z M 7.1875 -3.296875 "/>
</g>
<g id="glyph-0-15-27ec5fd5">
<path d="M 7.09375 -4.78125 C 7.09375 -1.515625 5.953125 0.203125 3.84375 0.203125 C 1.71875 0.203125 0.609375 -1.515625 0.609375 -4.859375 C 0.609375 -8.1875 1.703125 -9.921875 3.84375 -9.921875 C 6 -9.921875 7.09375 -8.21875 7.09375 -4.78125 Z M 5.84375 -4.890625 C 5.84375 -7.546875 5.1875 -8.828125 3.84375 -8.828125 C 2.515625 -8.828125 1.859375 -7.5625 1.859375 -4.84375 C 1.859375 -2.125 2.515625 -0.8125 3.828125 -0.8125 C 5.1875 -0.8125 5.84375 -2.078125 5.84375 -4.890625 Z M 5.84375 -4.890625 "/>
</g>
<g id="glyph-0-16-27ec5fd5">
<path d="M 4.859375 0 C 4.859375 0 3.625 0 3.625 0 C 3.625 0 3.625 -7.0625 3.625 -7.0625 C 3.625 -7.0625 1.421875 -7.0625 1.421875 -7.0625 C 1.421875 -7.0625 1.421875 -7.953125 1.421875 -7.953125 C 3.328125 -8.1875 3.609375 -8.40625 4.046875 -9.921875 C 4.046875 -9.921875 4.859375 -9.921875 4.859375 -9.921875 C 4.859375 -9.921875 4.859375 0 4.859375 0 Z M 4.859375 0 "/>
</g>
<g id="glyph-0-17-27ec5fd5">
<path d="M 7.15625 -7.015625 C 7.15625 -5.796875 6.4375 -4.765625 5.046875 -4.015625 C 5.046875 -4.015625 3.65625 -3.265625 3.65625 -3.265625 C 2.4375 -2.546875 1.984375 -2.03125 1.859375 -1.21875 C 1.859375 -1.21875 7.078125 -1.21875 7.078125 -1.21875 C 7.078125 -1.21875 7.078125 0 7.078125 0 C 7.078125 0 0.46875 0 0.46875 0 C 0.59375 -2.1875 1.1875 -3.125 3.265625 -4.296875 C 3.265625 -4.296875 4.546875 -5.03125 4.546875 -5.03125 C 5.4375 -5.53125 5.890625 -6.203125 5.890625 -6.984375 C 5.890625 -8.046875 5.046875 -8.84375 3.9375 -8.84375 C 2.71875 -8.84375 2.03125 -8.140625 1.9375 -6.484375 C 1.9375 -6.484375 0.703125 -6.484375 0.703125 -6.484375 C 0.765625 -8.890625 1.953125 -9.921875 3.96875 -9.921875 C 5.859375 -9.921875 7.15625 -8.6875 7.15625 -7.015625 Z M 7.15625 -7.015625 "/>
</g>
<g id="glyph-1-0-27ec5fd5">
<path d="M -5.109375 -9.34375 C -1.9375 -9.34375 0 -7.75 0 -5.1875 C 0 -5.1875 0 -1.25 0 -1.25 C 0 -1.25 -10.203125 -1.25 -10.203125 -1.25 C -10.203125 -1.25 -10.203125 -5.1875 -10.203125 -5.1875 C -10.203125 -7.765625 -8.28125 -9.34375 -5.109375 -9.34375 Z M -5.09375 -8.03125 C -7.703125 -8.03125 -9.0625 -6.96875 -9.0625 -4.953125 C -9.0625 -4.953125 -9.0625 -2.546875 -9.0625 -2.546875 C -9.0625 -2.546875 -1.140625 -2.546875 -1.140625 -2.546875 C -1.140625 -2.546875 -1.140625 -4.953125 -1.140625 -4.953125 C -1.140625 -6.96875 -2.515625 -8.03125 -5.09375 -8.03125 Z M -5.09375 -8.03125 "/>
</g>
<g id="glyph-1-1-27ec5fd5">
<path d="M 0 -7.03125 C 0 -7.03125 0 -5.59375 0 -5.59375 C 0 -5.59375 -3.96875 -3.109375 -3.96875 -3.109375 C -3.96875 -3.109375 -2.859375 -1.96875 -2.859375 -1.96875 C -2.859375 -1.96875 0 -1.96875 0 -1.96875 C 0 -1.96875 0 -0.8125 0 -0.8125 C 0 -0.8125 -10.203125 -0.8125 -10.203125 -0.8125 C -10.203125 -0.8125 -10.203125 -1.96875 -10.203125 -1.96875 C -10.203125 -1.96875 -4.234375 -1.96875 -4.234375 -1.96875 C -4.234375 -1.96875 -7.34375 -5.078125 -7.34375 -5.078125 C -7.34375 -5.078125 -7.34375 -6.578125 -7.34375 -6.578125 C -7.34375 -6.578125 -4.796875 -4.03125 -4.796875 -4.03125 C -4.796875 -4.03125 0 -7.03125 0 -7.03125 Z M 0 -7.03125 "/>
</g>
<g id="glyph-2-0-27ec5fd5">
<path d="M 2.484375 -8.09375 C 2.484375 -8.09375 2.484375 0.3125 2.484375 0.3125 C 2.484375 0.3125 1.78125 0.3125 1.78125 0.3125 C 1.78125 0.3125 1.78125 -8.09375 1.78125 -8.09375 C 1.78125 -8.09375 2.484375 -8.09375 2.484375 -8.09375 Z M 2.484375 -8.09375 "/>
</g>
<g id="glyph-3-0-27ec5fd5">
<path d="M 0 -2.109375 C 0 -2.109375 0 -0.953125 0 -0.953125 C 0 -0.953125 -10.203125 -0.953125 -10.203125 -0.953125 C -10.203125 -0.953125 -10.203125 -2.109375 -10.203125 -2.109375 C -10.203125 -2.109375 0 -2.109375 0 -2.109375 Z M 0 -2.109375 "/>
</g>
<g id="glyph-4-0-27ec5fd5">
<path d="M 4.765625 -2 C 4.765625 -2 0.625 -2 0.625 -2 C 0.625 -2 0.625 -2.625 0.625 -2.625 C 0.625 -2.625 4.765625 -2.625 4.765625 -2.625 C 4.765625 -2.625 4.765625 -2 4.765625 -2 Z M 4.765625 -2 "/>
</g>
<g id="glyph-4-1-27ec5fd5">
<path d="M 4.71875 -4.625 C 4.71875 -3.828125 4.25 -3.140625 3.328125 -2.65625 C 3.328125 -2.65625 2.40625 -2.15625 2.40625 -2.15625 C 1.609375 -1.6875 1.3125 -1.34375 1.234375 -0.796875 C 1.234375 -0.796875 4.671875 -0.796875 4.671875 -0.796875 C 4.671875 -0.796875 4.671875 0 4.671875 0 C 4.671875 0 0.3125 0 0.3125 0 C 0.390625 -1.4375 0.78125 -2.0625 2.15625 -2.828125 C 2.15625 -2.828125 3 -3.3125 3 -3.3125 C 3.578125 -3.640625 3.890625 -4.09375 3.890625 -4.609375 C 3.890625 -5.3125 3.328125 -5.84375 2.59375 -5.84375 C 1.796875 -5.84375 1.34375 -5.375 1.28125 -4.28125 C 1.28125 -4.28125 0.46875 -4.28125 0.46875 -4.28125 C 0.515625 -5.859375 1.28125 -6.546875 2.625 -6.546875 C 3.859375 -6.546875 4.71875 -5.734375 4.71875 -4.625 Z M 4.71875 -4.625 "/>
</g>
<g id="glyph-4-2-27ec5fd5">
<path d="M 1.765625 0 C 1.765625 0 0.796875 0 0.796875 0 C 0.796875 0 0.796875 -0.953125 0.796875 -0.953125 C 0.796875 -0.953125 1.765625 -0.953125 1.765625 -0.953125 C 1.765625 -0.953125 1.765625 0 1.765625 0 Z M 1.765625 0 "/>
</g>
<g id="glyph-4-3-27ec5fd5">
<path d="M 4.734375 -2.171875 C 4.734375 -0.78125 3.8125 0.140625 2.5 0.140625 C 1.328125 0.140625 0.59375 -0.375 0.328125 -1.6875 C 0.328125 -1.6875 1.140625 -1.6875 1.140625 -1.6875 C 1.328125 -0.9375 1.765625 -0.578125 2.46875 -0.578125 C 3.359375 -0.578125 3.90625 -1.125 3.90625 -2.0625 C 3.90625 -3.03125 3.359375 -3.59375 2.46875 -3.59375 C 1.96875 -3.59375 1.65625 -3.4375 1.28125 -2.984375 C 1.28125 -2.984375 0.53125 -2.984375 0.53125 -2.984375 C 0.53125 -2.984375 1.015625 -6.40625 1.015625 -6.40625 C 1.015625 -6.40625 4.390625 -6.40625 4.390625 -6.40625 C 4.390625 -6.40625 4.390625 -5.609375 4.390625 -5.609375 C 4.390625 -5.609375 1.671875 -5.609375 1.671875 -5.609375 C 1.671875 -5.609375 1.40625 -3.921875 1.40625 -3.921875 C 1.796875 -4.1875 2.15625 -4.3125 2.625 -4.3125 C 3.875 -4.3125 4.734375 -3.46875 4.734375 -2.171875 Z M 4.734375 -2.171875 "/>
</g>
<g id="glyph-4-4-27ec5fd5">
<path d="M 4.6875 -3.15625 C 4.6875 -1 3.921875 0.140625 2.546875 0.140625 C 1.140625 0.140625 0.390625 -1 0.390625 -3.203125 C 0.390625 -5.40625 1.125 -6.546875 2.546875 -6.546875 C 3.96875 -6.546875 4.6875 -5.421875 4.6875 -3.15625 Z M 3.84375 -3.21875 C 3.84375 -4.984375 3.421875 -5.828125 2.546875 -5.828125 C 1.65625 -5.828125 1.234375 -4.984375 1.234375 -3.1875 C 1.234375 -1.40625 1.65625 -0.53125 2.515625 -0.53125 C 3.421875 -0.53125 3.84375 -1.359375 3.84375 -3.21875 Z M 3.84375 -3.21875 "/>
</g>
<g id="glyph-4-5-27ec5fd5">
<path d="M 3.203125 0 C 3.203125 0 2.390625 0 2.390625 0 C 2.390625 0 2.390625 -4.65625 2.390625 -4.65625 C 2.390625 -4.65625 0.9375 -4.65625 0.9375 -4.65625 C 0.9375 -4.65625 0.9375 -5.25 0.9375 -5.25 C 2.203125 -5.40625 2.375 -5.546875 2.671875 -6.546875 C 2.671875 -6.546875 3.203125 -6.546875 3.203125 -6.546875 C 3.203125 -6.546875 3.203125 0 3.203125 0 Z M 3.203125 0 "/>
</g>
<g id="glyph-5-0-27ec5fd5">
<path d="M 4.859375 0 C 4.859375 0 3.625 0 3.625 0 C 3.625 0 3.625 -7.0625 3.625 -7.0625 C 3.625 -7.0625 1.421875 -7.0625 1.421875 -7.0625 C 1.421875 -7.0625 1.421875 -7.953125 1.421875 -7.953125 C 3.328125 -8.1875 3.609375 -8.40625 4.046875 -9.921875 C 4.046875 -9.921875 4.859375 -9.921875 4.859375 -9.921875 C 4.859375 -9.921875 4.859375 0 4.859375 0 Z M 4.859375 0 "/>
</g>
<g id="glyph-5-1-27ec5fd5">
<path d="M 7.09375 -4.78125 C 7.09375 -1.515625 5.953125 0.203125 3.84375 0.203125 C 1.71875 0.203125 0.609375 -1.515625 0.609375 -4.859375 C 0.609375 -8.1875 1.703125 -9.921875 3.84375 -9.921875 C 6 -9.921875 7.09375 -8.21875 7.09375 -4.78125 Z M 5.84375 -4.890625 C 5.84375 -7.546875 5.1875 -8.828125 3.84375 -8.828125 C 2.515625 -8.828125 1.859375 -7.5625 1.859375 -4.84375 C 1.859375 -2.125 2.515625 -0.8125 3.828125 -0.8125 C 5.1875 -0.8125 5.84375 -2.078125 5.84375 -4.890625 Z M 5.84375 -4.890625 "/>
</g>
<g id="glyph-6-0-27ec5fd5">
<path d="M 4.859375 0 C 4.859375 0 3.625 0 3.625 0 C 3.625 0 3.625 -7.0625 3.625 -7.0625 C 3.625 -7.0625 1.421875 -7.0625 1.421875 -7.0625 C 1.421875 -7.0625 1.421875 -7.953125 1.421875 -7.953125 C 3.328125 -8.1875 3.609375 -8.40625 4.046875 -9.921875 C 4.046875 -9.921875 4.859375 -9.921875 4.859375 -9.921875 C 4.859375 -9.921875 4.859375 0 4.859375 0 Z M 4.859375 0 "/>
</g>
<g id="glyph-6-1-27ec5fd5">
<path d="M 7.09375 -4.78125 C 7.09375 -1.515625 5.953125 0.203125 3.84375 0.203125 C 1.71875 0.203125 0.609375 -1.515625 0.609375 -4.859375 C 0.609375 -8.1875 1.703125 -9.921875 3.84375 -9.921875 C 6 -9.921875 7.09375 -8.21875 7.09375 -4.78125 Z M 5.84375 -4.890625 C 5.84375 -7.546875 5.1875 -8.828125 3.84375 -8.828125 C 2.515625 -8.828125 1.859375 -7.5625 1.859375 -4.84375 C 1.859375 -2.125 2.515625 -0.8125 3.828125 -0.8125 C 5.1875 -0.8125 5.84375 -2.078125 5.84375 -4.890625 Z M 5.84375 -4.890625 "/>
</g>
</g>
<clipPath id="clip-0-27ec5fd5">
<path clip-rule="nonzero" d="M 414 16 L 417 16 L 417 441 L 414 441 Z M 414 16 "/>
</clipPath>
</defs>
<rect x="-80" y="-50" width="960" height="600" fill="rgb(100%, 100%, 100%)" fill-opacity="1"/>
<path fill-rule="nonzero" fill="rgb(100%, 100%, 100%)" fill-opacity="1" d="M 81 441 L 784 441 L 784 16 L 81 16 Z M 81 441 "/>
<path fill="none" stroke-width="1" stroke-linecap="butt" stroke-linejoin="miter" stroke="rgb(0%, 0%, 0%)" stroke-opacity="0.12" stroke-miterlimit="1.154701" d="M 247.5 441 L 247.5 16 "/>
<path fill="none" stroke-width="1" stroke-linecap="butt" stroke-linejoin="miter" stroke="rgb(0%, 0%, 0%)" stroke-opacity="0.12" stroke-miterlimit="1.154701" d="M 415.683594 441 L 415.683594 16 "/>
<path fill="none" stroke-width="1" stroke-linecap="butt" stroke-linejoin="miter" stroke="rgb(0%, 0%, 0%)" stroke-opacity="0.12" stroke-miterlimit="1.154701" d="M 583.863281 441 L 583.863281 16 "/>
<path fill="none" stroke-width="1" stroke-linecap="butt" stroke-linejoin="miter" stroke="rgb(0%, 0%, 0%)" stroke-opacity="0.12" stroke-miterlimit="1.154701" d="M 752.046875 441 L 752.046875 16 "/>
<path fill="none" stroke-width="1" stroke-linecap="butt" stroke-linejoin="miter" stroke="rgb(0%, 0%, 0%)" stroke-opacity="0.12" stroke-miterlimit="1.154701" d="M 81 366.644531 L 784 366.644531 "/>
<path fill="none" stroke-width="1" stroke-linecap="butt" stroke-linejoin="miter" stroke="rgb(0%, 0%, 0%)" stroke-opacity="0.12" stroke-miterlimit="1.154701" d="M 81 280.8125 L 784 280.8125 "/>
<path fill="none" stroke-width="1" stroke-linecap="butt" stroke-linejoin="miter" stroke="rgb(0%, 0%, 0%)" stroke-opacity="0.12" stroke-miterlimit="1.154701" d="M 81 194.984375 L 784 194.984375 "/>
<path fill="none" stroke-width="1" stroke-linecap="butt" stroke-linejoin="miter" stroke="rgb(0%, 0%, 0%)" stroke-opacity="0.12" stroke-miterlimit="1.154701" d="M 81 109.152344 L 784 109.152344 "/>
<path fill="none" stroke-width="1" stroke-linecap="butt" stroke-linejoin="miter" stroke="rgb(0%, 0%, 0%)" stroke-opacity="0.12" stroke-miterlimit="1.154701" d="M 81 23.324219 L 784 23.324219 "/>
<g fill="rgb(0%, 0%, 0%)" fill-opacity="1">
<use xlink:href="#glyph-0-0-27ec5fd5" x="381.938994" y="481.567999"/>
</g>
<g fill="rgb(0%, 0%, 0%)" fill-opacity="1">
<use xlink:href="#glyph-0-1-27ec5fd5" x="389.722995" y="481.567999"/>
</g>
<g fill="rgb(0%, 0%, 0%)" fill-opacity="1">
<use xlink:href="#glyph-0-2-27ec5fd5" x="394.384993" y="481.567999"/>
</g>
<g fill="rgb(0%, 0%, 0%)" fill-opacity="1">
<use xlink:href="#glyph-0-3-27ec5fd5" x="402.168994" y="481.567999"/>
</g>
<g fill="rgb(0%, 0%, 0%)" fill-opacity="1">
<use xlink:href="#glyph-0-4-27ec5fd5" x="409.952994" y="481.567999"/>
</g>
<g fill="rgb(0%, 0%, 0%)" fill-opacity="1">
<use xlink:href="#glyph-0-5-27ec5fd5" x="413.060993" y="481.567999"/>
</g>
<g fill="rgb(0%, 0%, 0%)" fill-opacity="1">
<use xlink:href="#glyph-0-6-27ec5fd5" x="420.844992" y="481.567999"/>
</g>
<g fill="rgb(0%, 0%, 0%)" fill-opacity="1">
<use xlink:href="#glyph-0-7-27ec5fd5" x="432.50699" y="481.567999"/>
</g>
<g fill="rgb(0%, 0%, 0%)" fill-opacity="1">
<use xlink:href="#glyph-0-8-27ec5fd5" x="436.398989" y="481.567999"/>
</g>
<g fill="rgb(0%, 0%, 0%)" fill-opacity="1">
<use xlink:href="#glyph-0-9-27ec5fd5" x="443.398988" y="481.567999"/>
</g>
<g fill="rgb(0%, 0%, 0%)" fill-opacity="1">
<use xlink:href="#glyph-0-10-27ec5fd5" x="446.506986" y="481.567999"/>
</g>
<g fill="rgb(0%, 0%, 0%)" fill-opacity="1">
<use xlink:href="#glyph-0-5-27ec5fd5" x="453.506986" y="481.567999"/>
</g>
<g fill="rgb(0%, 0%, 0%)" fill-opacity="1">
<use xlink:href="#glyph-0-7-27ec5fd5" x="461.290982" y="481.567999"/>
</g>
<g fill="rgb(0%, 0%, 0%)" fill-opacity="1">
<use xlink:href="#glyph-0-11-27ec5fd5" x="465.182981" y="481.567999"/>
</g>
<g fill="rgb(0%, 0%, 0%)" fill-opacity="1">
<use xlink:href="#glyph-0-12-27ec5fd5" x="469.844983" y="481.567999"/>
</g>
<g fill="rgb(0%, 0%, 0%)" fill-opacity="1">
<use xlink:href="#glyph-0-13-27ec5fd5" x="478.398984" y="481.567999"/>
</g>
<g fill="rgb(0%, 0%, 0%)" fill-opacity="1">
<use xlink:href="#glyph-0-14-27ec5fd5" x="239.715995" y="462.257999"/>
</g>
<g fill="rgb(0%, 0%, 0%)" fill-opacity="1">
<use xlink:href="#glyph-0-15-27ec5fd5" x="247.499994" y="462.257999"/>
</g>
<g fill="rgb(0%, 0%, 0%)" fill-opacity="1">
<use xlink:href="#glyph-0-16-27ec5fd5" x="404.005815" y="462.257999"/>
</g>
<g fill="rgb(0%, 0%, 0%)" fill-opacity="1">
<use xlink:href="#glyph-0-15-27ec5fd5" x="411.789815" y="462.257999"/>
</g>
<g fill="rgb(0%, 0%, 0%)" fill-opacity="1">
<use xlink:href="#glyph-0-15-27ec5fd5" x="419.573815" y="462.257999"/>
</g>
<g fill="rgb(0%, 0%, 0%)" fill-opacity="1">
<use xlink:href="#glyph-0-16-27ec5fd5" x="572.187635" y="462.257999"/>
</g>
<g fill="rgb(0%, 0%, 0%)" fill-opacity="1">
<use xlink:href="#glyph-0-14-27ec5fd5" x="579.971635" y="462.257999"/>
</g>
<g fill="rgb(0%, 0%, 0%)" fill-opacity="1">
<use xlink:href="#glyph-0-15-27ec5fd5" x="587.755635" y="462.257999"/>
</g>
<g fill="rgb(0%, 0%, 0%)" fill-opacity="1">
<use xlink:href="#glyph-0-17-27ec5fd5" x="740.369455" y="462.257999"/>
</g>
<g fill="rgb(0%, 0%, 0%)" fill-opacity="1">
<use xlink:href="#glyph-0-15-27ec5fd5" x="748.153455" y="462.257999"/>
</g>
<g fill="rgb(0%, 0%, 0%)" fill-opacity="1">
<use xlink:href="#glyph-0-15-27ec5fd5" x="755.937454" y="462.257999"/>
</g>
<g fill="rgb(0%, 0%, 0%)" fill-opacity="1">
<use xlink:href="#glyph-1-0-27ec5fd5" x="28.216237" y="242.499987"/>
</g>
<g fill="rgb(0%, 0%, 0%)" fill-opacity="1">
<use xlink:href="#glyph-2-0-27ec5fd5" x="28.216237" y="232.391987"/>
</g>
<g fill="rgb(0%, 0%, 0%)" fill-opacity="1">
<use xlink:href="#glyph-1-1-27ec5fd5" x="28.216238" y="224.607987"/>
</g>
<g fill="rgb(0%, 0%, 0%)" fill-opacity="1">
<use xlink:href="#glyph-3-0-27ec5fd5" x="28.216238" y="217.607987"/>
</g>
<g fill="rgb(0%, 0%, 0%)" fill-opacity="1">
<use xlink:href="#glyph-0-16-27ec5fd5" x="36.268241" y="372.293131"/>
</g>
<g fill="rgb(0%, 0%, 0%)" fill-opacity="1">
<use xlink:href="#glyph-0-15-27ec5fd5" x="44.052241" y="372.293131"/>
</g>
<g fill="rgb(0%, 0%, 0%)" fill-opacity="1">
<use xlink:href="#glyph-4-0-27ec5fd5" x="52.760241" y="366.693131"/>
</g>
<g fill="rgb(0%, 0%, 0%)" fill-opacity="1">
<use xlink:href="#glyph-4-1-27ec5fd5" x="58.156401" y="366.693131"/>
</g>
<g fill="rgb(0%, 0%, 0%)" fill-opacity="1">
<use xlink:href="#glyph-4-2-27ec5fd5" x="63.293841" y="366.693131"/>
</g>
<g fill="rgb(0%, 0%, 0%)" fill-opacity="1">
<use xlink:href="#glyph-4-3-27ec5fd5" x="65.862561" y="366.693131"/>
</g>
<g fill="rgb(0%, 0%, 0%)" fill-opacity="1">
<use xlink:href="#glyph-0-16-27ec5fd5" x="36.268241" y="286.463217"/>
</g>
<g fill="rgb(0%, 0%, 0%)" fill-opacity="1">
<use xlink:href="#glyph-0-15-27ec5fd5" x="44.052241" y="286.463217"/>
</g>
<g fill="rgb(0%, 0%, 0%)" fill-opacity="1">
<use xlink:href="#glyph-4-0-27ec5fd5" x="52.760241" y="280.863217"/>
</g>
<g fill="rgb(0%, 0%, 0%)" fill-opacity="1">
<use xlink:href="#glyph-4-1-27ec5fd5" x="58.156401" y="280.863217"/>
</g>
<g fill="rgb(0%, 0%, 0%)" fill-opacity="1">
<use xlink:href="#glyph-4-2-27ec5fd5" x="63.293841" y="280.863217"/>
</g>
<g fill="rgb(0%, 0%, 0%)" fill-opacity="1">
<use xlink:href="#glyph-4-4-27ec5fd5" x="65.862561" y="280.863217"/>
</g>
<g fill="rgb(0%, 0%, 0%)" fill-opacity="1">
<use xlink:href="#glyph-0-16-27ec5fd5" x="36.268241" y="200.633288"/>
</g>
<g fill="rgb(0%, 0%, 0%)" fill-opacity="1">
<use xlink:href="#glyph-0-15-27ec5fd5" x="44.052241" y="200.633288"/>
</g>
<g fill="rgb(0%, 0%, 0%)" fill-opacity="1">
<use xlink:href="#glyph-4-0-27ec5fd5" x="52.760241" y="195.033287"/>
</g>
<g fill="rgb(0%, 0%, 0%)" fill-opacity="1">
<use xlink:href="#glyph-4-5-27ec5fd5" x="58.156401" y="195.033287"/>
</g>
<g fill="rgb(0%, 0%, 0%)" fill-opacity="1">
<use xlink:href="#glyph-4-2-27ec5fd5" x="63.293841" y="195.033287"/>
</g>
<g fill="rgb(0%, 0%, 0%)" fill-opacity="1">
<use xlink:href="#glyph-4-3-27ec5fd5" x="65.862561" y="195.033287"/>
</g>
<g fill="rgb(0%, 0%, 0%)" fill-opacity="1">
<use xlink:href="#glyph-5-0-27ec5fd5" x="36.268241" y="114.803388"/>
</g>
<g fill="rgb(0%, 0%, 0%)" fill-opacity="1">
<use xlink:href="#glyph-5-1-27ec5fd5" x="44.052241" y="114.803388"/>
</g>
<g fill="rgb(0%, 0%, 0%)" fill-opacity="1">
<use xlink:href="#glyph-4-0-27ec5fd5" x="52.760241" y="109.203388"/>
</g>
<g fill="rgb(0%, 0%, 0%)" fill-opacity="1">
<use xlink:href="#glyph-4-5-27ec5fd5" x="58.156401" y="109.203388"/>
</g>
<g fill="rgb(0%, 0%, 0%)" fill-opacity="1">
<use xlink:href="#glyph-4-2-27ec5fd5" x="63.293841" y="109.203388"/>
</g>
<g fill="rgb(0%, 0%, 0%)" fill-opacity="1">
<use xlink:href="#glyph-4-4-27ec5fd5" x="65.862561" y="109.203388"/>
</g>
<g fill="rgb(0%, 0%, 0%)" fill-opacity="1">
<use xlink:href="#glyph-6-0-27ec5fd5" x="36.268241" y="28.973459"/>
</g>
<g fill="rgb(0%, 0%, 0%)" fill-opacity="1">
<use xlink:href="#glyph-6-1-27ec5fd5" x="44.052241" y="28.973459"/>
</g>
<g fill="rgb(0%, 0%, 0%)" fill-opacity="1">
<use xlink:href="#glyph-4-0-27ec5fd5" x="52.760241" y="23.373459"/>
</g>
<g fill="rgb(0%, 0%, 0%)" fill-opacity="1">
<use xlink:href="#glyph-4-4-27ec5fd5" x="58.156401" y="23.373459"/>
</g>
<g fill="rgb(0%, 0%, 0%)" fill-opacity="1">
<use xlink:href="#glyph-4-2-27ec5fd5" x="63.293841" y="23.373459"/>
</g>
<g fill="rgb(0%, 0%, 0%)" fill-opacity="1">
<use xlink:href="#glyph-4-3-27ec5fd5" x="65.862561" y="23.373459"/>
</g>
<path fill="none" stroke-width="1.5" stroke-linecap="butt" stroke-linejoin="miter" stroke="rgb(0%, 44.705883%, 69.803923%)" stroke-opacity="1" stroke-miterlimit="2" d="M 112.953125 419.25 L 119.683594 421.683594 L 126.410156 421.382812 L 133.136719 415.351562 L 139.863281 404.105469 L 146.589844 396.265625 L 153.316406 391.308594 L 160.046875 385.8125 L 166.773438 382.210938 L 173.5 379.765625 L 180.226562 376.332031 L 186.953125 373.726562 L 193.683594 373.402344 L 200.410156 372.085938 L 207.136719 371.742188 L 213.863281 370.488281 L 220.589844 369.078125 L 227.316406 367.65625 L 234.046875 366.636719 L 240.773438 366.734375 L 247.5 366.753906 L 254.226562 366.695312 L 260.953125 366.914062 L 267.683594 367.257812 L 274.410156 367.890625 L 281.136719 367.808594 L 287.863281 367.46875 L 294.589844 366.640625 L 301.316406 365.753906 L 308.046875 365.007812 L 314.773438 363.53125 L 321.5 361.527344 L 328.226562 359.332031 L 334.953125 357.035156 L 341.683594 354.628906 L 348.410156 352.136719 L 355.136719 349.292969 L 361.863281 346.53125 L 368.589844 343.566406 L 375.316406 340.519531 L 382.046875 337.339844 L 388.773438 333.984375 L 395.5 330.402344 L 402.226562 326.917969 L 408.953125 323.253906 L 415.683594 319.171875 L 422.410156 314.582031 L 429.136719 309.492188 L 435.863281 304.117188 L 442.589844 298.070312 L 449.316406 290.242188 L 456.046875 279.089844 L 462.773438 261.433594 L 469.5 239.40625 L 476.226562 224.726562 L 482.953125 215.167969 L 489.683594 204.308594 L 496.410156 192.722656 L 503.136719 183.535156 L 509.863281 177.195312 L 516.589844 172.644531 L 523.316406 168.992188 L 530.046875 166.273438 L 536.773438 163.699219 L 543.5 160.464844 L 550.226562 155.859375 L 556.953125 148.804688 L 563.683594 137.558594 L 570.410156 121.039062 L 577.136719 101.960938 L 583.863281 85.804688 L 590.589844 75.34375 L 597.316406 69.769531 L 604.046875 67.164062 L 610.773438 66.058594 L 617.5 65.652344 L 624.226562 65.660156 L 630.953125 65.90625 L 637.683594 66.273438 L 644.410156 66.703125 L 651.136719 67.164062 L 657.863281 67.542969 L 664.589844 67.738281 L 671.316406 67.511719 L 678.046875 66.230469 L 684.773438 62.882812 L 691.5 56.980469 L 698.226562 50.910156 L 704.953125 46.9375 L 711.683594 44.710938 L 718.410156 43.394531 L 725.136719 42.4375 L 731.863281 41.441406 L 738.589844 40.078125 L 745.316406 38.070312 L 752.046875 35.316406 "/>
<g clip-path="url(#clip-0-27ec5fd5)">
<path fill="none" stroke-width="2.5" stroke-linecap="butt" stroke-linejoin="miter" stroke="rgb(100%, 0%, 0%)" stroke-opacity="1" stroke-dasharray="7.5 7.5" stroke-miterlimit="1.154701" d="M 415.683594 441 L 415.683594 16 "/>
</g>
<path fill="none" stroke-width="1" stroke-linecap="butt" stroke-linejoin="miter" stroke="rgb(0%, 0%, 0%)" stroke-opacity="1" stroke-miterlimit="1.154701" d="M 247.5 441.5 L 247.5 446.5 "/>
<path fill="none" stroke-width="1" stroke-linecap="butt" stroke-linejoin="miter" stroke="rgb(0%, 0%, 0%)" stroke-opacity="1" stroke-miterlimit="1.154701" d="M 415.683594 441.5 L 415.683594 446.5 "/>
<path fill="none" stroke-width="1" stroke-linecap="butt" stroke-linejoin="miter" stroke="rgb(0%, 0%, 0%)" stroke-opacity="1" stroke-miterlimit="1.154701" d="M 583.863281 441.5 L 583.863281 446.5 "/>
<path fill="none" stroke-width="1" stroke-linecap="butt" stroke-linejoin="miter" stroke="rgb(0%, 0%, 0%)" stroke-opacity="1" stroke-miterlimit="1.154701" d="M 752.046875 441.5 L 752.046875 446.5 "/>
<path fill="none" stroke-width="1" stroke-linecap="butt" stroke-linejoin="miter" stroke="rgb(0%, 0%, 0%)" stroke-opacity="1" stroke-miterlimit="1.154701" d="M 80.5 366.644531 L 75.5 366.644531 "/>
<path fill="none" stroke-width="1" stroke-linecap="butt" stroke-linejoin="miter" stroke="rgb(0%, 0%, 0%)" stroke-opacity="1" stroke-miterlimit="1.154701" d="M 80.5 280.8125 L 75.5 280.8125 "/>
<path fill="none" stroke-width="1" stroke-linecap="butt" stroke-linejoin="miter" stroke="rgb(0%, 0%, 0%)" stroke-opacity="1" stroke-miterlimit="1.154701" d="M 80.5 194.984375 L 75.5 194.984375 "/>
<path fill="none" stroke-width="1" stroke-linecap="butt" stroke-linejoin="miter" stroke="rgb(0%, 0%, 0%)" stroke-opacity="1" stroke-miterlimit="1.154701" d="M 80.5 109.152344 L 75.5 109.152344 "/>
<path fill="none" stroke-width="1" stroke-linecap="butt" stroke-linejoin="miter" stroke="rgb(0%, 0%, 0%)" stroke-opacity="1" stroke-miterlimit="1.154701" d="M 80.5 23.324219 L 75.5 23.324219 "/>
<path fill="none" stroke-width="1" stroke-linecap="butt" stroke-linejoin="miter" stroke="rgb(0%, 0%, 0%)" stroke-opacity="1" stroke-miterlimit="1.154701" d="M 80.5 441 L 784.5 441 "/>
<path fill="none" stroke-width="1" stroke-linecap="butt" stroke-linejoin="miter" stroke="rgb(0%, 0%, 0%)" stroke-opacity="1" stroke-miterlimit="1.154701" d="M 81 441.5 L 81 15.5 "/>
<path fill="none" stroke-width="1" stroke-linecap="butt" stroke-linejoin="miter" stroke="rgb(0%, 0%, 0%)" stroke-opacity="1" stroke-miterlimit="1.154701" d="M 80.5 16 L 784.5 16 "/>
<path fill="none" stroke-width="1" stroke-linecap="butt" stroke-linejoin="miter" stroke="rgb(0%, 0%, 0%)" stroke-opacity="1" stroke-miterlimit="1.154701" d="M 784 441.5 L 784 15.5 "/>
</svg>
